<svg width="512" height="512" viewBox="0 0 512 512" fill="none" xmlns="http://www.w3.org/2000/svg">
<path fill-rule="evenodd" clip-rule="evenodd" d="M146.932 72.9C121.111 76.3709 105.69 82.953 94.3216 94.3216C82.9537 105.69 76.3711 121.114 72.9 146.939C69.3672 173.223 69.3333 207.782 69.3333 256C69.3333 304.228 69.3672 338.787 72.9 365.068C76.3709 390.889 82.953 406.31 94.3216 417.678C105.69 429.046 121.114 435.629 146.939 439.1C173.223 442.633 207.782 442.667 256 442.667C304.228 442.667 338.787 442.633 365.068 439.1C390.889 435.629 406.31 429.047 417.678 417.678C429.046 406.31 435.629 390.885 439.1 365.061C442.633 338.777 442.667 304.217 442.667 256C442.667 207.772 442.633 173.212 439.1 146.932C435.629 121.111 429.047 105.69 417.678 94.3216C406.31 82.9537 390.885 76.3711 365.061 72.9C338.777 69.3672 304.217 69.3333 256 69.3333C207.772 69.3333 173.212 69.3672 146.932 72.9ZM254.78 37.3333H257.219C303.951 37.333 340.661 37.3327 369.323 41.1852C398.693 45.1328 421.999 53.3875 440.306 71.6942C458.612 90.0002 466.867 113.3 470.815 142.668C474.667 171.328 474.667 208.038 474.667 254.78V257.218C474.667 303.951 474.667 340.661 470.815 369.323C466.867 398.693 458.612 421.999 440.306 440.306C422 458.612 398.7 466.867 369.332 470.815C340.672 474.667 303.962 474.667 257.22 474.667H254.782C208.049 474.667 171.339 474.667 142.677 470.815C113.307 466.867 90.0009 458.612 71.6942 440.306C53.3882 422 45.133 398.7 41.1852 369.332C37.3327 340.672 37.333 303.962 37.3333 257.22V254.781C37.333 208.049 37.3327 171.339 41.1852 142.677C45.1328 113.307 53.3875 90.0009 71.6942 71.6942C90.0002 53.3882 113.3 45.133 142.668 41.1852C171.328 37.3327 208.038 37.333 254.78 37.3333Z" fill="#466FD2"/>
<path fill-rule="evenodd" clip-rule="evenodd" d="M320 37.3333C328.836 37.3333 336 44.4967 336 53.3333V117.333C336 126.17 328.836 133.333 320 133.333C311.163 133.333 304 126.17 304 117.333V53.3333C304 44.4967 311.163 37.3333 320 37.3333ZM319.556 176.006C325.454 175.842 330.964 178.938 333.892 184.062L366.165 240.54L383.353 223.353C386.743 219.963 391.474 218.272 396.244 218.745C401.014 219.217 405.322 221.804 407.98 225.793L438.806 272.042C438.806 272.042 438.806 272.043 438.806 272.042C441.634 276.284 443.243 278.676 444.582 280.369C445.381 281.379 445.784 281.745 445.908 281.843C446.109 281.967 446.319 282.08 446.54 282.182L446.56 282.19C446.583 282.197 446.651 282.218 446.779 282.247C447.049 282.308 447.577 282.401 448.54 282.479C450.693 282.654 453.571 282.667 458.667 282.667C467.503 282.667 474.667 289.83 474.667 298.667C474.667 307.503 467.503 314.667 458.667 314.667C458.036 314.667 457.4 314.669 456.76 314.671C449.069 314.695 440.792 314.721 433.294 311.312L433.257 311.296C431.816 310.636 430.419 309.889 429.069 309.055C422.075 304.721 417.481 297.795 413.24 291.389C412.885 290.853 412.532 290.32 412.18 289.792L392.178 259.782L373.98 277.98C370.454 281.506 365.486 283.187 360.543 282.525C355.6 281.863 351.249 278.935 348.775 274.605L320.941 225.895L259.644 348.489C256.934 353.909 251.394 357.333 245.333 357.333C239.273 357.333 233.733 353.909 231.022 348.489L193.117 272.678L174.706 315.636C172.339 321.159 167.078 324.89 161.083 325.297C155.089 325.703 149.371 322.717 146.28 317.565L126.116 283.958L110.63 303.303C110.63 303.304 110.631 303.302 110.63 303.303C110.206 303.834 109.778 304.374 109.348 304.916C104.415 311.133 99.0256 317.925 91.2463 321.649C83.4476 325.392 74.8051 325.364 66.8047 325.338C66.1424 325.335 65.4846 325.333 64.8319 325.333H53.3333C44.4967 325.333 37.3333 318.17 37.3333 309.333C37.3333 300.497 44.4967 293.333 53.3333 293.333H64.8319C70.1341 293.333 73.113 293.32 75.3369 293.128C76.3294 293.043 76.8672 292.942 77.1398 292.877C77.2688 292.847 77.3368 292.824 77.3618 292.815L77.4001 292.8C77.3721 292.817 77.3745 292.814 77.4001 292.8C77.4962 292.744 77.9373 292.442 78.904 291.423C80.4448 289.799 82.314 287.476 85.636 283.321L115.509 246.001C118.782 241.912 123.85 239.684 129.076 240.036C134.302 240.388 139.025 243.276 141.72 247.768L157.62 274.269L177.294 228.364C179.748 222.638 185.303 218.857 191.53 218.674C197.757 218.491 203.525 221.939 206.311 227.511L245.333 305.556L305.689 184.845C308.328 179.567 313.658 176.17 319.556 176.006ZM320 293.333C328.836 293.333 336 300.497 336 309.333V458.667C336 467.503 328.836 474.667 320 474.667C311.163 474.667 304 467.503 304 458.667V309.333C304 300.497 311.163 293.333 320 293.333Z" fill="#466FD2"/>
<path fill-rule="evenodd" clip-rule="evenodd" d="M320 186.667C317.054 186.667 314.667 189.054 314.667 192C314.667 194.945 317.054 197.333 320 197.333C322.945 197.333 325.333 194.945 325.333 192C325.333 189.054 322.945 186.667 320 186.667ZM282.667 192C282.667 171.381 299.381 154.667 320 154.667C340.618 154.667 357.333 171.381 357.333 192C357.333 212.618 340.618 229.333 320 229.333C299.381 229.333 282.667 212.618 282.667 192Z" fill="#466FD2"/>
</svg>
