<svg width="512" height="512" viewBox="0 0 512 512" fill="none" xmlns="http://www.w3.org/2000/svg">
<path fill-rule="evenodd" clip-rule="evenodd" d="M231.01 51.9057C239.925 49.6312 248.605 48 255.701 48C262.798 48 271.478 49.6312 280.393 51.9057C289.592 54.2527 300.136 57.577 311.361 61.563C333.824 69.5395 359.714 80.4144 384.257 92.1665C408.728 103.884 432.345 116.706 450.068 128.656C458.87 134.592 466.762 140.673 472.635 146.635C475.574 149.619 478.384 152.948 480.54 156.575C482.635 160.098 484.736 164.948 484.736 170.667C484.736 176.385 482.635 181.235 480.54 184.759C478.384 188.385 475.574 191.714 472.635 194.698C466.762 200.661 458.87 206.742 450.068 212.677C432.345 224.627 408.728 237.449 384.257 249.167C359.714 260.919 333.824 271.794 311.361 279.77C300.136 283.756 289.592 287.081 280.393 289.428C271.478 291.702 262.798 293.333 255.701 293.333C248.605 293.333 239.925 291.702 231.01 289.428C221.81 287.081 211.267 283.756 200.042 279.77C177.578 271.794 151.689 260.919 127.146 249.167C102.675 237.449 79.0575 224.627 61.3352 212.677C52.5327 206.742 44.641 200.661 38.7673 194.698C35.8284 191.714 33.0185 188.385 30.8628 184.759C28.7683 181.235 26.6667 176.385 26.6667 170.667C26.6667 164.948 28.7683 160.098 30.8628 156.575C33.0185 152.948 35.8284 149.619 38.7673 146.635C44.641 140.673 52.5327 134.592 61.3352 128.656C79.0575 116.706 102.675 103.884 127.146 92.1665C151.689 80.4144 177.578 69.5395 200.042 61.563C211.267 57.577 221.81 54.2527 231.01 51.9057ZM58.2233 173.198C58.2219 173.198 58.2326 173.173 58.2594 173.122C58.238 173.172 58.2246 173.198 58.2233 173.198ZM60.0942 170.667C60.504 170.2 60.9904 169.675 61.5646 169.092C65.2927 165.307 71.2078 160.594 79.2256 155.188C95.144 144.454 117.222 132.398 140.966 121.028C164.64 109.692 189.487 99.2684 210.75 91.7183C221.387 87.941 230.954 84.9449 238.921 82.9125C247.171 80.8075 252.713 80 255.701 80C258.69 80 264.232 80.8075 272.482 82.9125C280.449 84.9449 290.016 87.941 300.653 91.7183C321.916 99.2684 346.763 109.692 370.437 121.028C394.181 132.398 416.259 144.454 432.177 155.188C440.195 160.594 446.11 165.307 449.838 169.092C450.412 169.675 450.899 170.2 451.309 170.667C450.899 171.134 450.412 171.659 449.838 172.242C446.11 176.026 440.195 180.739 432.177 186.145C416.259 196.879 394.181 208.935 370.437 220.305C346.763 231.641 321.916 242.065 300.653 249.615C290.016 253.392 280.449 256.388 272.482 258.421C264.232 260.526 258.69 261.333 255.701 261.333C252.713 261.333 247.171 260.526 238.921 258.421C230.954 256.388 221.387 253.392 210.75 249.615C189.487 242.065 164.64 231.641 140.966 220.305C117.222 208.935 95.144 196.879 79.2256 186.145C71.2078 180.739 65.2927 176.026 61.5646 172.242C60.9904 171.659 60.504 171.134 60.0942 170.667ZM453.18 173.198C453.178 173.198 453.165 173.172 453.143 173.122C453.17 173.173 453.181 173.198 453.18 173.198ZM453.143 168.212C453.165 168.161 453.178 168.135 453.18 168.135C453.181 168.135 453.17 168.16 453.143 168.212ZM58.2594 168.212C58.2326 168.16 58.2219 168.135 58.2233 168.135C58.2246 168.136 58.238 168.161 58.2594 168.212Z" fill="#466FD2"/>
<path fill-rule="evenodd" clip-rule="evenodd" d="M436.757 186.667C445.594 186.667 452.757 193.83 452.757 202.667V348.054C468.475 378.03 477.32 396.38 484.192 422.612C484.305 423.043 484.4 423.479 484.477 423.918C485.482 429.679 486.002 436.385 483.806 443.034C481.41 450.29 476.617 455.092 471.685 458.498C471.524 458.61 471.361 458.718 471.195 458.824C465.644 462.364 459.165 464.165 452.589 464H420.395C415.276 464 408.647 463.052 402.452 459.035L402.421 459.015C397.057 455.519 392.043 450.552 389.629 443.042C387.463 436.304 388.098 429.525 389.051 423.963C389.142 423.432 389.26 422.907 389.404 422.388C397.109 394.628 404.859 377.182 420.757 347.919V202.667C420.757 193.83 427.921 186.667 436.757 186.667ZM436.62 386.872C429.549 401.582 425.041 413.778 420.469 430.119C420.352 430.875 420.277 431.494 420.232 431.999C420.284 432 420.338 432 420.395 432H452.821C452.981 432 453.141 432.002 453.301 432.007C453.26 431.498 453.185 430.849 453.055 430.032C449.003 414.74 444.233 402.572 436.62 386.872ZM127.176 218.682C136.005 218.298 143.473 225.143 143.857 233.971L149.083 354.066C149.083 354.064 149.083 354.068 149.083 354.066C149.165 355.916 149.335 356.792 149.467 357.223L149.477 357.255C150.868 361.842 153.117 364.991 155.651 366.802L155.68 366.823C165.099 373.587 179.416 379.338 197.335 383.344C215.045 387.305 235.271 389.339 255.693 389.339C276.116 389.339 296.343 387.305 314.057 383.344C331.978 379.338 346.3 373.587 355.726 366.821L355.752 366.802C358.251 365.016 360.465 361.934 361.836 357.48C362.108 356.451 362.259 355.394 362.289 354.33L362.296 354.078L367.525 233.971C367.909 225.143 375.377 218.298 384.205 218.682C393.033 219.066 399.878 226.534 399.494 235.362L394.273 355.355C394.16 359.008 393.612 362.635 392.639 366.159L392.54 366.501C389.642 376.152 383.949 385.976 374.373 392.826C360.099 403.068 341.16 410.075 321.039 414.573C300.704 419.12 278.1 421.339 255.693 421.339C233.286 421.339 210.684 419.12 190.352 414.573C170.227 410.073 151.285 403.064 137.014 392.815C127.448 385.965 121.769 376.154 118.854 366.543C117.586 362.378 117.245 358.441 117.114 355.481L111.887 235.362C111.503 226.534 118.348 219.066 127.176 218.682Z" fill="#466FD2"/>
</svg>
